<svg width="302" height="99" viewBox="0 0 302 99" fill="none" xmlns="http://www.w3.org/2000/svg">
<path d="M59.4002 18.1472H36.29V0.119781H18.2626V18.1472H0.253418V36.1746H59.4002C61.3748 36.1746 62.9654 37.7653 62.9654 39.7399V64.8064C62.9654 66.0314 62.3438 67.165 61.3017 67.8232L41.7567 80.201C40.2026 81.1883 38.8131 80.6947 38.1366 80.3107C37.4418 79.9268 36.29 79.0126 36.29 77.1843V36.1746L18.2626 49.4484V77.1843C18.2626 85.0644 22.5409 92.3046 29.452 96.1076C32.7064 97.8994 36.29 98.777 39.8552 98.777C43.8776 98.777 47.8999 97.6617 51.4103 95.4311L70.9553 83.0533C77.2448 79.0675 80.9929 72.2478 80.9929 64.8247V39.7582C80.9929 27.8557 71.3027 18.1655 59.4002 18.1655V18.1472Z" fill="#829DF3"/>
<path d="M129.426 42.9029H123.045V36.2478H116.115V42.9029H109.46V49.5581H123.045H129.426V42.9029Z" fill="white"/>
<path d="M122.825 49.6495L116.115 52.4286V64.5322C116.115 66.6348 116.737 68.2803 117.98 69.4321C119.224 70.6023 120.997 71.169 123.337 71.169H129.426V65.0807H124.983C123.685 65.0807 123.045 64.4408 123.045 63.1426V49.5581" fill="white"/>
<path d="M133.667 82.2671V75.8862H139.207C140.322 75.8862 141.017 75.4291 141.31 74.4966L141.803 73.1071L130.321 42.9029H137.525L144.729 62.0274H145.844L152.499 42.9029H159.703L147.782 76.7089C147.087 78.7384 146.155 80.1645 144.985 81.0055C143.814 81.8283 141.986 82.2488 139.463 82.2488H133.649L133.667 82.2671Z" fill="white"/>
<path d="M160.635 82.2671V42.9212H167.016L167.565 45.9745H167.839C168.351 45.3163 169.009 44.713 169.777 44.2011C171.624 42.9761 173.653 42.3727 175.865 42.3727C179.559 42.3727 182.648 43.7257 185.153 46.4499C187.64 49.1741 188.901 52.7028 188.901 57.0726C188.901 61.4423 187.658 64.971 185.153 67.6952C182.667 70.4194 179.559 71.7724 175.865 71.7724C173.434 71.7724 171.349 71.2239 169.649 70.1086C168.918 69.5967 168.296 69.0299 167.821 68.4448H167.546V82.3036H160.617L160.635 82.2671ZM179.979 63.1609C181.314 61.6983 181.972 59.6688 181.972 57.036C181.972 54.4032 181.314 52.3737 179.979 50.9111C178.644 49.4484 176.908 48.717 174.768 48.717C172.629 48.717 170.892 49.4484 169.558 50.9111C168.223 52.3737 167.565 54.4215 167.565 57.036C167.565 59.6505 168.223 61.6983 169.558 63.1609C170.892 64.6236 172.629 65.3549 174.768 65.3549C176.908 65.3549 178.644 64.6236 179.979 63.1609Z" fill="white"/>
<path d="M210.037 62.8684H217.241C217.058 63.5631 216.692 64.3493 216.162 65.2269C215.632 66.1045 214.864 67.0553 213.895 68.1157C212.907 69.1761 211.573 70.0355 209.872 70.7119C208.172 71.3884 206.289 71.7358 204.223 71.7358C200.054 71.7358 196.599 70.3646 193.893 67.6038C191.168 64.843 189.815 61.3326 189.815 57.036C189.815 52.7394 191.168 49.229 193.893 46.4682C196.617 43.7074 200.054 42.3361 204.223 42.3361C208.099 42.3361 211.39 43.6891 214.059 46.4133C216.729 49.1375 218.082 52.4834 218.082 56.4692C218.082 56.7983 218.027 57.4748 217.917 58.4621L217.807 59.23H196.745C197.037 61.2229 197.878 62.8318 199.231 64.0568C200.603 65.2818 202.266 65.8851 204.223 65.8851C205.704 65.8851 206.965 65.556 207.989 64.9161C209.031 64.2762 209.708 63.5814 210.037 62.8318V62.8684ZM196.745 54.5494H211.152C210.823 52.6662 210.055 51.1304 208.848 49.942C207.642 48.7536 206.106 48.1685 204.223 48.1685C202.23 48.1685 200.584 48.7536 199.323 49.9054C198.043 51.0756 197.184 52.6114 196.745 54.5311V54.5494Z" fill="white"/>
<path d="M241.155 71.169L240.607 68.1157H240.332C239.784 68.8105 239.107 69.4321 238.34 69.944C236.566 71.1325 234.463 71.7175 232.013 71.7175C228.32 71.7175 225.23 70.3646 222.726 67.6403C220.239 64.9161 218.977 61.3874 218.977 57.0177C218.977 52.648 220.221 49.1193 222.726 46.395C225.212 43.6708 228.32 42.3178 232.013 42.3178C234.226 42.3178 236.255 42.9212 238.102 44.1462C238.87 44.6581 239.528 45.2615 240.04 45.9197H240.314V36.1381H247.244V71.1508H241.155V71.169ZM227.918 63.1609C229.253 64.6236 230.99 65.3549 233.129 65.3549C235.268 65.3549 237.005 64.6236 238.34 63.1609C239.674 61.6982 240.332 59.6688 240.332 57.036C240.332 54.4032 239.674 52.3737 238.34 50.911C237.005 49.4484 235.268 48.717 233.129 48.717C230.99 48.717 229.253 49.4484 227.918 50.911C226.583 52.3737 225.925 54.4215 225.925 57.036C225.925 59.6505 226.583 61.6982 227.918 63.1609Z" fill="white"/>
<path d="M268.398 62.8684H275.601C275.419 63.5631 275.053 64.3493 274.523 65.2269C273.993 66.1045 273.225 67.0553 272.256 68.1157C271.268 69.1761 269.934 70.0355 268.233 70.7119C266.533 71.3884 264.65 71.7358 262.584 71.7358C258.415 71.7358 254.96 70.3646 252.254 67.6038C249.529 64.843 248.176 61.3326 248.176 57.036C248.176 52.7394 249.529 49.229 252.254 46.4682C254.978 43.7074 258.415 42.3361 262.584 42.3361C266.46 42.3361 269.751 43.6891 272.42 46.4133C275.108 49.1375 276.442 52.4834 276.442 56.4692C276.442 56.7983 276.388 57.4748 276.278 58.4621L276.168 59.23H255.106C255.398 61.2229 256.239 62.8318 257.592 64.0568C258.964 65.2818 260.627 65.8851 262.584 65.8851C264.065 65.8851 265.326 65.556 266.35 64.9161C267.392 64.2762 268.069 63.5814 268.398 62.8318V62.8684ZM255.106 54.5494H269.513C269.184 52.6662 268.416 51.1304 267.209 49.942C266.003 48.7536 264.467 48.1685 262.584 48.1685C260.591 48.1685 258.945 48.7536 257.684 49.9054C256.422 51.0573 255.545 52.6114 255.106 54.5311V54.5494Z" fill="white"/>
<path d="M282.073 56.78V71.169H288.985V53.9095L282.073 56.78Z" fill="white"/>
<path d="M289.552 42.8298C289.917 42.4641 290.374 42.2813 290.941 42.2813H295.092V36.1929H289.003C286.901 36.1929 285.218 36.8145 283.957 38.0761C282.695 39.3376 282.074 41.0197 282.074 43.1223V47.2726H277.357V53.9278H282.074H289.003H295.092V47.2726H289.003V44.2193C289.003 43.6708 289.186 43.1954 289.552 42.8298Z" fill="white"/>
<path d="M301.747 64.5139H295.091V71.169H301.747V64.5139Z" fill="#829DF3"/>
</svg>
